<svg width="106" height="26" viewBox="0 0 106 26" fill="none" xmlns="http://www.w3.org/2000/svg">
<path d="M15.7616 12.2382C15.7731 11.3674 16.0092 10.5136 16.4481 9.75622C16.887 8.99884 17.5143 8.3625 18.2717 7.9064C17.7906 7.23331 17.1558 6.67938 16.4178 6.28861C15.6798 5.89784 14.859 5.681 14.0205 5.65531C12.2318 5.47142 10.4978 6.70364 9.5863 6.70364C8.65719 6.70364 7.25383 5.67356 5.74264 5.70402C4.76517 5.73495 3.81254 6.01336 2.97758 6.51211C2.14262 7.01086 1.4538 7.71296 0.978241 8.54998C-1.08179 12.0434 0.454807 17.1775 2.42814 20.0012C3.41545 21.384 4.56932 22.9285 6.07914 22.8737C7.55659 22.8137 8.10839 21.951 9.8918 21.951C11.6587 21.951 12.1764 22.8737 13.7168 22.8389C15.3022 22.8137 16.301 21.45 17.2537 20.0542C17.9631 19.069 18.5089 17.9801 18.8711 16.8278C17.95 16.4463 17.164 15.8076 16.6111 14.9914C16.0581 14.1753 15.7627 13.2177 15.7616 12.2382Z" fill="white"/>
<path d="M12.8517 3.79823C13.7161 2.78185 14.142 1.47546 14.0388 0.156494C12.7182 0.292352 11.4983 0.910564 10.6222 1.88795C10.1939 2.36543 9.86581 2.92092 9.65677 3.52266C9.44774 4.1244 9.36184 4.76059 9.40398 5.39486C10.0645 5.40152 10.718 5.26129 11.3152 4.98473C11.9124 4.70817 12.4378 4.30248 12.8517 3.79823Z" fill="white"/>
<path d="M34.437 19.3735H29.3952L28.1844 22.8753H26.0488L30.8244 9.91968H33.0431L37.8187 22.8753H35.6468L34.437 19.3735ZM29.9173 17.7576H33.9138L31.9437 12.0745H31.8886L29.9173 17.7576Z" fill="white"/>
<path d="M48.1329 18.1528C48.1329 21.0881 46.529 22.9739 44.1084 22.9739C43.4952 23.0053 42.8854 22.867 42.3488 22.5747C41.8122 22.2825 41.3704 21.8481 41.0741 21.3213H41.0283V25.9999H39.0488V13.4294H40.9649V15.0005H41.0013C41.3112 14.4763 41.7604 14.0441 42.3012 13.7501C42.8419 13.456 43.4539 13.3111 44.072 13.3306C46.5195 13.3306 48.1329 15.2256 48.1329 18.1528ZM46.0983 18.1528C46.0983 16.2404 45.0893 14.9832 43.5498 14.9832C42.0374 14.9832 41.02 16.2669 41.02 18.1528C41.02 20.056 42.0374 21.3305 43.5498 21.3305C45.0893 21.3305 46.0983 20.0825 46.0983 18.1528Z" fill="white"/>
<path d="M58.7482 18.153C58.7482 21.0883 57.1442 22.9742 54.7236 22.9742C54.1105 23.0056 53.5007 22.8672 52.964 22.575C52.4274 22.2827 51.9857 21.8483 51.6894 21.3216H51.6436V26.0001H49.6641V13.4297H51.5801V15.0007H51.6165C51.9264 14.4765 52.3756 14.0444 52.9164 13.7503C53.4571 13.4563 54.069 13.3113 54.6872 13.3308C57.1348 13.3308 58.7482 15.2259 58.7482 18.153ZM56.7135 18.153C56.7135 16.2407 55.7045 14.9834 54.165 14.9834C52.6526 14.9834 51.6353 16.2671 51.6353 18.153C51.6353 20.0562 52.6526 21.3308 54.165 21.3308C55.7045 21.3308 56.7135 20.0827 56.7135 18.153H56.7135Z" fill="white"/>
<path d="M65.7607 19.2652C65.9074 20.55 67.1817 21.3935 68.9229 21.3935C70.5914 21.3935 71.7918 20.55 71.7918 19.3915C71.7918 18.3859 71.0678 17.7838 69.3536 17.3712L67.6393 16.9667C65.2105 16.3921 64.0829 15.2795 64.0829 13.4741C64.0829 11.2388 66.0717 9.70337 68.8959 9.70337C71.6909 9.70337 73.607 11.2388 73.6715 13.4741H71.6732C71.5536 12.1812 70.4624 11.4008 68.8678 11.4008C67.2731 11.4008 66.182 12.1904 66.182 13.3396C66.182 14.2556 66.8789 14.7945 68.5838 15.2071L70.0411 15.5576C72.755 16.1862 73.8826 17.254 73.8826 19.149C73.8826 21.5728 71.9114 23.0909 68.7762 23.0909C65.8429 23.0909 63.8623 21.6085 63.7344 19.2651L65.7607 19.2652Z" fill="white"/>
<path d="M78.1557 11.1941V13.4294H79.9896V14.9648H78.1557V20.1721C78.1557 20.9811 78.5229 21.358 79.3291 21.358C79.5468 21.3543 79.7641 21.3393 79.9802 21.3132V22.8394C79.6178 22.9057 79.2494 22.9358 78.8807 22.9291C76.9283 22.9291 76.1668 22.2108 76.1668 20.3789V14.9648H74.7646V13.4294H76.1668V11.1941H78.1557Z" fill="white"/>
<path d="M81.0518 18.1527C81.0518 15.1808 82.8388 13.3132 85.6255 13.3132C88.4216 13.3132 90.2003 15.1807 90.2003 18.1527C90.2003 21.1328 88.431 22.9922 85.6255 22.9922C82.8211 22.9922 81.0518 21.1328 81.0518 18.1527ZM88.1834 18.1527C88.1834 16.114 87.2295 14.9108 85.6255 14.9108C84.0215 14.9108 83.0687 16.1232 83.0687 18.1527C83.0687 20.1996 84.0215 21.3937 85.6255 21.3937C87.2295 21.3937 88.1833 20.1996 88.1833 18.1527H88.1834Z" fill="white"/>
<path d="M91.834 13.4296H93.722V15.0373H93.7678C93.8955 14.5352 94.1958 14.0914 94.6183 13.7807C95.0407 13.4699 95.5595 13.311 96.0874 13.3307C96.3155 13.33 96.543 13.3542 96.7656 13.4031V15.2166C96.4776 15.1304 96.1772 15.0909 95.8762 15.0995C95.5886 15.088 95.302 15.1377 95.0358 15.245C94.7697 15.3524 94.5304 15.5149 94.3345 15.7213C94.1385 15.9278 93.9905 16.1733 93.9006 16.4411C93.8106 16.7089 93.7809 16.9925 93.8135 17.2726V22.8752H91.834L91.834 13.4296Z" fill="white"/>
<path d="M105.89 20.1005C105.623 21.8152 103.918 22.992 101.737 22.992C98.9317 22.992 97.1904 21.1509 97.1904 18.1973C97.1904 15.2345 98.9411 13.313 101.654 13.313C104.322 13.313 106 15.1082 106 17.9721V18.6364H99.1887V18.7536C99.1572 19.1012 99.2017 19.4514 99.319 19.7809C99.4364 20.1104 99.624 20.4117 99.8693 20.6648C100.115 20.9178 100.412 21.1168 100.742 21.2486C101.072 21.3804 101.427 21.4419 101.783 21.4291C102.251 21.472 102.72 21.3659 103.121 21.1265C103.523 20.8871 103.834 20.5273 104.01 20.1005L105.89 20.1005ZM99.198 17.2814H104.019C104.037 16.9688 103.989 16.656 103.877 16.3626C103.766 16.0692 103.594 15.8016 103.371 15.5765C103.149 15.3514 102.882 15.1737 102.587 15.0545C102.291 14.9354 101.973 14.8773 101.654 14.884C101.332 14.8822 101.012 14.9428 100.714 15.0625C100.415 15.1822 100.144 15.3586 99.916 15.5815C99.6877 15.8044 99.5067 16.0694 99.3834 16.3611C99.2602 16.6529 99.1972 16.9656 99.198 17.2814V17.2814Z" fill="white"/>
<path d="M28.5105 2.79923H29.3603C29.5066 2.81708 29.6551 2.80504 29.7964 2.76389C29.9377 2.72274 30.0688 2.65336 30.1814 2.56013C30.294 2.4669 30.3856 2.35184 30.4505 2.2222C30.5155 2.09256 30.5523 1.95115 30.5586 1.80689C30.5586 1.23277 30.1176 0.861913 29.3697 0.861913C29.2198 0.8414 29.0672 0.850509 28.921 0.888702C28.7748 0.926896 28.6378 0.993399 28.5183 1.08429C28.3987 1.17517 28.299 1.2886 28.2249 1.41787C28.1509 1.54714 28.104 1.68964 28.0871 1.83694H27.154C27.1701 1.56955 27.2422 1.30825 27.3658 1.06933C27.4894 0.830402 27.6619 0.618962 27.8726 0.448171C28.0833 0.277379 28.3276 0.150893 28.5903 0.0765896C28.8531 0.00228562 29.1286 -0.0182455 29.3998 0.016273C30.6512 0.016273 31.5323 0.702456 31.5323 1.69022C31.5352 2.02113 31.4222 2.34302 31.2121 2.60215C31.0019 2.86127 30.7074 3.04196 30.3776 3.11406V3.18741C30.7686 3.20439 31.1367 3.37228 31.4016 3.65436C31.6665 3.93644 31.8066 4.30978 31.7913 4.69275C31.7624 4.96806 31.6776 5.23495 31.542 5.47777C31.4064 5.72059 31.2227 5.93445 31.0016 6.10682C30.7805 6.27919 30.5265 6.4066 30.2545 6.48158C29.9825 6.55656 29.698 6.5776 29.4175 6.54347C29.1365 6.581 28.8507 6.56272 28.5771 6.48973C28.3034 6.41674 28.0476 6.29054 27.8248 6.11864C27.602 5.94674 27.4169 5.73267 27.2804 5.48918C27.1439 5.2457 27.0588 4.97778 27.0303 4.70142H27.9779C28.0351 5.29693 28.5937 5.68107 29.4175 5.68107C30.2414 5.68107 30.7792 5.24959 30.7792 4.64134C30.7792 4.02443 30.2726 3.6444 29.3874 3.6444H28.5105V2.79923Z" fill="white"/>
<path d="M32.8682 5.06422C32.8682 4.21858 33.512 3.73107 34.6521 3.66179L35.9513 3.58843V3.18294C35.9513 2.68676 35.6174 2.40658 34.9694 2.40658C34.441 2.40658 34.0758 2.5966 33.9697 2.92874H33.0533C33.1501 2.12181 33.9261 1.60425 35.0141 1.60425C36.2166 1.60425 36.8948 2.19058 36.8948 3.18294V6.39279H35.9825V5.73259H35.9076C35.7556 5.9694 35.5422 6.16246 35.289 6.29205C35.0359 6.42164 34.7523 6.48311 34.467 6.47019C34.2656 6.49071 34.0621 6.46967 33.8696 6.40843C33.677 6.34719 33.4997 6.24711 33.3491 6.11464C33.1984 5.98217 33.0778 5.82026 32.995 5.63934C32.9122 5.45842 32.869 5.2625 32.8682 5.06422ZM35.9513 4.66279V4.27004L34.78 4.34339C34.1195 4.38669 33.8199 4.60676 33.8199 5.02091C33.8199 5.44373 34.1944 5.68978 34.7093 5.68978C34.8602 5.70474 35.0126 5.68983 35.1575 5.64592C35.3023 5.60201 35.4367 5.53 35.5526 5.43418C35.6685 5.33837 35.7635 5.2207 35.832 5.08818C35.9005 4.95565 35.9411 4.81099 35.9513 4.66279Z" fill="white"/>
<path d="M39.4056 2.47501V6.39245H38.459V1.69458H41.6171V2.47496L39.4056 2.47501Z" fill="white"/>
<path d="M47.357 4.04176C47.357 5.53435 46.5862 6.47017 45.3755 6.47017C45.0782 6.49005 44.7814 6.42634 44.5199 6.28654C44.2584 6.14675 44.0431 5.93668 43.8994 5.68107H43.8245V7.95461H42.8779V1.69486H43.7891V2.47125H43.8599C44.0062 2.20672 44.2243 1.98693 44.4901 1.83617C44.7559 1.68541 45.059 1.60955 45.3661 1.61695C46.5862 1.61692 47.357 2.54864 47.357 4.04176ZM46.3834 4.04176C46.3834 3.04941 45.9039 2.44982 45.1019 2.44982C44.3051 2.44982 43.8068 3.06214 43.8068 4.04584C43.8068 5.02495 44.3051 5.63778 45.0977 5.63778C45.9039 5.63776 46.3834 5.03817 46.3834 4.04176Z" fill="white"/>
<path d="M48.6139 8.07508V7.27681C48.7164 7.28956 48.8196 7.29535 48.9228 7.29413C49.1245 7.30876 49.3246 7.24993 49.4847 7.12893C49.6448 7.00793 49.7536 6.83329 49.7904 6.6385L49.8611 6.40977L48.125 1.69458H49.1558L50.3584 5.42608H50.4332L51.6316 1.69458H52.6353L50.8473 6.58655C50.4374 7.72968 49.9839 8.09647 49.0061 8.09647C48.927 8.09646 48.7024 8.0878 48.6139 8.07508Z" fill="white"/>
<path d="M53.376 5.05965H54.3184C54.411 5.47384 54.8073 5.6898 55.3617 5.6898C55.9921 5.6898 56.379 5.41777 56.379 4.99497C56.379 4.5421 56.0316 4.3261 55.3617 4.3261H54.644V3.60578H55.3492C55.9214 3.60578 56.2126 3.3903 56.2126 2.99754C56.2126 2.65266 55.9307 2.38931 55.3492 2.38931C54.8198 2.38931 54.4328 2.60938 54.3714 2.98024H53.4592C53.5274 2.55409 53.7636 2.17119 54.1171 1.91387C54.4705 1.65656 54.913 1.5454 55.3492 1.60429C56.4893 1.60429 57.1415 2.10913 57.1415 2.9028C57.1468 3.12382 57.0745 3.33992 56.9367 3.51499C56.7989 3.69006 56.6038 3.81347 56.3842 3.86459V3.93795C56.6457 3.97098 56.8856 4.09686 57.0586 4.29171C57.2316 4.48656 57.3255 4.73681 57.3225 4.99499C57.3225 5.88805 56.5465 6.47893 55.3617 6.47893C54.3142 6.4789 53.4634 6.0087 53.376 5.05965Z" fill="white"/>
<path d="M58.6855 6.39245V1.69458H59.6238V4.92584H59.6987L61.9091 1.69459H62.8474V6.39246H61.9091V3.1439H61.8384L59.6238 6.39247L58.6855 6.39245Z" fill="white"/>
<path d="M68.0143 2.47521H66.5039V6.39264H65.5563V2.47521H64.0459V1.69482H68.0143V2.47521Z" fill="white"/>
<path d="M73.1152 5.12418C72.9863 5.55352 72.7074 5.92482 72.3273 6.17324C71.9473 6.42167 71.4902 6.53141 71.0359 6.48331C70.7199 6.49148 70.4059 6.4322 70.1156 6.30958C69.8253 6.18696 69.5658 6.00395 69.355 5.77324C69.1442 5.54252 68.9872 5.26964 68.8948 4.97353C68.8025 4.67742 68.777 4.36518 68.8203 4.05847C68.7782 3.75082 68.8041 3.4379 68.8962 3.1409C68.9883 2.84391 69.1445 2.56976 69.3542 2.33703C69.5639 2.1043 69.8222 1.91842 70.1116 1.79196C70.401 1.66551 70.7148 1.60144 71.0317 1.60408C72.3663 1.60408 73.1725 2.49714 73.1725 3.97236V4.29588H69.7856V4.34784C69.7706 4.52027 69.7926 4.69387 69.8502 4.85749C69.9077 5.0211 69.9996 5.1711 70.1199 5.29785C70.2402 5.4246 70.3863 5.5253 70.5487 5.59347C70.7111 5.66164 70.8863 5.69577 71.0629 5.69368C71.2892 5.72018 71.5184 5.68018 71.7214 5.57877C71.9244 5.47736 72.092 5.31911 72.203 5.12415L73.1152 5.12418ZM69.7855 3.61019H72.2071C72.2191 3.4526 72.1973 3.2943 72.1431 3.14546C72.0889 2.99662 72.0035 2.86052 71.8924 2.74592C71.7813 2.63131 71.647 2.54073 71.498 2.47998C71.3491 2.41924 71.1888 2.38967 71.0275 2.39319C70.8638 2.391 70.7012 2.421 70.5495 2.48139C70.3978 2.54178 70.26 2.63135 70.1442 2.74481C70.0284 2.85826 69.937 2.9933 69.8754 3.14193C69.8138 3.29057 69.7833 3.44979 69.7856 3.61019H69.7855Z" fill="white"/>
<path d="M77.127 1.69482H79.2895C80.2278 1.69482 80.7781 2.16043 80.7781 2.88939C80.7795 3.1207 80.6998 3.34548 80.5523 3.52612C80.4048 3.70676 80.1984 3.8323 79.9677 3.88174V3.9551C80.2479 3.97243 80.5105 4.09448 80.7013 4.29603C80.8922 4.49758 80.9968 4.76324 80.9934 5.03813C80.9934 5.85778 80.3641 6.39268 79.3114 6.39268H77.127V1.69482ZM78.0652 2.40649V3.62296H79.0035C79.5756 3.62296 79.8492 3.40748 79.8492 3.01013C79.8492 2.64387 79.611 2.40647 79.1086 2.40647L78.0652 2.40649ZM78.0652 4.30459V5.68105H79.1876C79.7473 5.68105 80.0468 5.43907 80.0468 4.99486C80.0468 4.52467 79.7077 4.3046 79.069 4.3046L78.0652 4.30459Z" fill="white"/>
</svg>
