<svg width="108" height="27" viewBox="0 0 108 27" fill="none" xmlns="http://www.w3.org/2000/svg">
<path d="M54.2285 15.2268C52.0377 15.2268 50.2478 16.936 50.2478 19.2849C50.2478 21.6243 52.0377 23.343 54.2285 23.343C56.4192 23.343 58.2091 21.6243 58.2091 19.2849C58.2091 16.936 56.4192 15.2268 54.2285 15.2268ZM54.2285 21.7484C53.0259 21.7484 51.9911 20.7362 51.9911 19.2849C51.9911 17.824 53.0259 16.8214 54.2285 16.8214C55.4311 16.8214 56.4658 17.824 56.4658 19.2849C56.4658 20.7362 55.4217 21.7484 54.2285 21.7484ZM45.54 15.2268C43.3493 15.2268 41.5594 16.936 41.5594 19.2849C41.5594 21.6243 43.3493 23.343 45.54 23.343C47.7308 23.343 49.5207 21.6243 49.5207 19.2849C49.5207 16.936 47.7308 15.2268 45.54 15.2268ZM45.54 21.7484C44.3374 21.7484 43.3027 20.7362 43.3027 19.2849C43.3027 17.824 44.3374 16.8214 45.54 16.8214C46.7426 16.8214 47.7774 17.824 47.7774 19.2849C47.7774 20.7362 46.7426 21.7484 45.54 21.7484ZM35.2108 16.4776V18.1964H39.2381C39.1169 19.1608 38.7999 19.8769 38.3245 20.3639C37.7372 20.9654 36.8236 21.6243 35.2202 21.6243C32.7404 21.6243 30.8013 19.5809 30.8013 17.041C30.8013 14.5011 32.7404 12.4577 35.2202 12.4577C36.5533 12.4577 37.5321 12.9924 38.2499 13.6895L39.4339 12.4768C38.4271 11.4933 37.094 10.739 35.2108 10.739C31.8175 10.739 28.9648 13.5654 28.9648 17.0505C28.9648 20.5262 31.8175 23.3621 35.2108 23.3621C37.0473 23.3621 38.4271 22.751 39.5084 21.5956C40.6178 20.4593 40.9627 18.8552 40.9627 17.5662C40.9627 17.1651 40.9348 16.7927 40.8695 16.4872H35.2108V16.4776ZM77.4505 17.8144C77.1242 16.9073 76.1174 15.2268 74.0572 15.2268C72.0156 15.2268 70.3189 16.8691 70.3189 19.2849C70.3189 21.5574 71.9969 23.343 74.2529 23.343C76.0708 23.343 77.1242 22.2067 77.5531 21.5479L76.2013 20.6217C75.7538 21.2996 75.1386 21.7484 74.2529 21.7484C73.3673 21.7484 72.7334 21.3282 72.3325 20.5166L77.637 18.2727L77.4505 17.8144ZM72.0435 19.1703C71.9969 17.6044 73.2275 16.8023 74.1131 16.8023C74.803 16.8023 75.3903 17.1556 75.586 17.6616L72.0435 19.1703ZM67.7366 23.1043H69.4799V11.1687H67.7366V23.1043ZM64.884 16.1339H64.8187C64.4272 15.6565 63.6814 15.2268 62.7305 15.2268C60.7448 15.2268 58.927 17.0123 58.927 19.304C58.927 21.5765 60.7448 23.3525 62.7305 23.3525C63.672 23.3525 64.4272 22.9228 64.8187 22.4263H64.8746V23.0088C64.8746 24.5652 64.0636 25.3959 62.7584 25.3959C61.6957 25.3959 61.0338 24.6129 60.7635 23.9541L59.2439 24.6034C59.6821 25.6823 60.838 27 62.7584 27C64.8001 27 66.5247 25.7683 66.5247 22.7701V15.475H64.8746V16.1339H64.884ZM62.8796 21.7484C61.6771 21.7484 60.6702 20.7171 60.6702 19.304C60.6702 17.8717 61.6771 16.8309 62.8796 16.8309C64.0636 16.8309 64.9958 17.8813 64.9958 19.304C65.0051 20.7171 64.0729 21.7484 62.8796 21.7484ZM85.6169 11.1687H81.4498V23.1043H83.1931V18.5783H85.6262C87.556 18.5783 89.4484 17.146 89.4484 14.8735C89.4484 12.601 87.5373 11.1687 85.6169 11.1687ZM85.6542 16.9169H83.1838V12.8206H85.6542C86.9593 12.8206 87.6958 13.9282 87.6958 14.8639C87.6958 15.7997 86.9593 16.9169 85.6542 16.9169ZM96.4122 15.2077C95.1537 15.2077 93.8486 15.7806 93.3079 17.0314L94.8554 17.6903C95.1817 17.0314 95.7969 16.8118 96.4402 16.8118C97.3351 16.8118 98.258 17.3656 98.2674 18.3491V18.4733C97.9504 18.2918 97.2792 18.0149 96.4495 18.0149C94.7808 18.0149 93.0935 18.9507 93.0935 20.698C93.0935 22.2926 94.4545 23.3239 95.9834 23.3239C97.1487 23.3239 97.8013 22.7892 98.2021 22.159H98.2581V23.0852H99.9361V18.5115C99.9454 16.3917 98.3979 15.2077 96.4122 15.2077ZM96.1978 21.7484C95.6291 21.7484 94.8367 21.4524 94.8367 20.7362C94.8367 19.8196 95.8249 19.4663 96.6826 19.4663C97.447 19.4663 97.8106 19.6382 98.2674 19.8673C98.1369 20.9654 97.2046 21.7484 96.1978 21.7484ZM106.061 15.4655L104.066 20.6408H104.01L101.94 15.4655H100.067L103.171 22.7032L101.4 26.7231H103.218L108 15.4655H106.061ZM90.3993 23.1043H92.1426V11.1687H90.3993V23.1043Z" fill="white"/>
<path d="M0.439572 1.659C0.169223 1.95501 0.0107422 2.41333 0.0107422 2.99579V24.117C0.0107422 24.709 0.169223 25.1673 0.439572 25.4537L0.504829 25.5206L12.0553 13.6996V13.5564V13.4131L0.504829 1.59216L0.439572 1.659Z" fill="url(#paint0_linear)"/>
<path d="M15.9038 17.6426L12.0537 13.6991V13.5559V13.4126L15.9038 9.46912L15.9878 9.51686L20.5464 12.1713C21.8515 12.9257 21.8515 14.167 20.5464 14.9308L15.9878 17.5853L15.9038 17.6426Z" fill="url(#paint1_linear)"/>
<path d="M15.9872 17.5858L12.0532 13.5564L0.4375 25.4538C0.866329 25.9216 1.57483 25.9789 2.37655 25.5111L15.9872 17.5858Z" fill="url(#paint2_linear)"/>
<path d="M15.9878 9.52674L2.36776 1.60153C1.56604 1.13365 0.85754 1.19094 0.428711 1.65882L12.0537 13.5562L15.9878 9.52674Z" fill="url(#paint3_linear)"/>
<path opacity="0.2" d="M15.9062 17.4999L2.37016 25.3774C1.61505 25.8166 0.934515 25.7879 0.505686 25.3869L0.44043 25.4537L0.505686 25.5206C0.943838 25.9216 1.61505 25.9503 2.37016 25.511L15.9901 17.5858L15.9062 17.4999Z" fill="#383838"/>
<path opacity="0.12" d="M0.440549 25.3201C0.1702 25.0241 0.0117188 24.5657 0.0117188 23.9833V24.1265C0.0117188 24.7185 0.1702 25.1768 0.440549 25.4633L0.505805 25.3965L0.440549 25.3201Z" fill="#383838"/>
<path opacity="0.12" d="M20.5464 14.7979L15.8945 17.5002L15.9784 17.5861L20.5371 14.9316C21.1896 14.5497 21.5159 14.0532 21.5159 13.5566C21.4693 14.0054 21.143 14.4542 20.5464 14.7979Z" fill="#383838"/>
<path opacity="0.25" d="M2.36788 1.73538L20.5465 12.315C21.1338 12.6587 21.4694 13.0979 21.5254 13.5563C21.5254 13.0598 21.1991 12.5537 20.5465 12.1813L2.36788 1.6017C1.06275 0.847374 0 1.47757 0 3.00531V3.14853C0 1.61125 1.07207 0.981053 2.36788 1.73538Z" fill="white"/>
<path d="M29.9613 8.08455H29.2715V6.16531H29.8215C30.3063 5.73563 30.5393 5.00995 30.53 3.96916V1.14282H34.2683V6.16531H34.8929V8.08455H34.203V6.87189H29.9613V8.08455ZM31.2572 3.97871C31.2665 4.88582 31.0893 5.6115 30.7258 6.17486H33.5505V1.84941H31.2572V3.97871Z" fill="white" stroke="white" stroke-width="0.186448" stroke-miterlimit="10"/>
<path d="M40.4974 6.12698C39.9474 6.70943 39.2669 6.99589 38.4465 6.99589C37.6261 6.99589 36.9456 6.70943 36.3956 6.12698C35.8455 5.54452 35.5752 4.83794 35.5752 4.00722C35.5752 3.1765 35.8455 2.46037 36.3956 1.88746C36.9456 1.30501 37.6261 1.01855 38.4465 1.01855C39.2575 1.01855 39.9381 1.30501 40.4974 1.88746C41.0474 2.46992 41.3271 3.1765 41.3271 4.00722C41.3271 4.84748 41.0474 5.55407 40.4974 6.12698ZM36.9269 5.64955C37.3371 6.07923 37.8499 6.2893 38.4465 6.2893C39.0431 6.2893 39.5558 6.07923 39.966 5.64955C40.3762 5.21987 40.5906 4.67561 40.5906 4.00722C40.5906 3.33883 40.3855 2.79457 39.966 2.36489C39.5558 1.93521 39.0431 1.72514 38.4465 1.72514C37.8499 1.72514 37.3371 1.93521 36.9269 2.36489C36.5168 2.79457 36.3023 3.33883 36.3023 4.00722C36.3023 4.67561 36.5168 5.21987 36.9269 5.64955Z" fill="white" stroke="white" stroke-width="0.186448" stroke-miterlimit="10"/>
<path d="M44.9437 6.99643C44.1234 6.99643 43.4335 6.70997 42.8742 6.13707C42.3148 5.56416 42.0352 4.85757 42.0352 3.99821C42.0352 3.13885 42.3148 2.43227 42.8742 1.85936C43.4335 1.28645 44.1234 1 44.9437 1C45.7828 1 46.4726 1.3151 46.9947 1.93575L46.4913 2.43227C46.109 1.9453 45.5963 1.70659 44.9344 1.70659C44.3285 1.70659 43.8064 1.91665 43.3869 2.33678C42.9674 2.75691 42.7623 3.31072 42.7623 3.98866C42.7623 4.6666 42.9674 5.22041 43.3869 5.64055C43.8064 6.06068 44.3191 6.27075 44.9344 6.27075C45.6056 6.27075 46.1743 5.99384 46.6497 5.44003L47.1531 5.95565C46.9014 6.27075 46.5752 6.519 46.1929 6.70043C45.8107 6.91049 45.3912 6.99643 44.9437 6.99643Z" fill="white" stroke="white" stroke-width="0.186448" stroke-miterlimit="10"/>
<path d="M50.0691 6.87189H49.3513V1.84941H47.7852V1.14282H51.626V1.84941H50.0598V6.87189H50.0691Z" fill="white" stroke="white" stroke-width="0.186448" stroke-miterlimit="10"/>
<path d="M56.5674 1.14282L54.4512 5.97434C54.1622 6.65228 53.7241 6.99602 53.1461 6.99602C52.9783 6.99602 52.7919 6.95783 52.5868 6.8719L52.7732 6.19396C52.8944 6.2608 53.0156 6.29899 53.1461 6.29899C53.3139 6.29899 53.4444 6.27034 53.5377 6.2035C53.6309 6.13666 53.7148 6.01253 53.7894 5.84066L53.9944 5.38234L52.1113 1.14282H52.9597L54.3394 4.42749H54.3673L55.7191 1.14282H56.5674Z" fill="white" stroke="white" stroke-width="0.186448" stroke-miterlimit="10"/>
<path d="M57.377 6.87165V1.14258H61.4229V6.87165H60.705V1.84916H58.0948V6.87165H57.377Z" fill="white" stroke="white" stroke-width="0.186448" stroke-miterlimit="10"/>
<path d="M62.7021 6.87189V1.14282H63.42V3.59677H66.2167V1.14282H66.9345V6.87189H66.2167V4.28426H63.42V6.87189H62.7021Z" fill="white" stroke="white" stroke-width="0.186448" stroke-miterlimit="10"/>
<path d="M72.7982 6.12698C72.2482 6.70943 71.5676 6.99589 70.7473 6.99589C69.9269 6.99589 69.2464 6.70943 68.6964 6.12698C68.1463 5.54452 67.876 4.83794 67.876 4.00722C67.876 3.1765 68.1463 2.46037 68.6964 1.88746C69.2464 1.30501 69.9269 1.01855 70.7473 1.01855C71.5583 1.01855 72.2388 1.30501 72.7982 1.88746C73.3482 2.46992 73.6279 3.1765 73.6279 4.00722C73.6186 4.84748 73.3482 5.55407 72.7982 6.12698ZM69.2277 5.64955C69.6379 6.07923 70.1506 6.2893 70.7473 6.2893C71.3439 6.2893 71.8566 6.07923 72.2668 5.64955C72.677 5.21987 72.8914 4.67561 72.8914 4.00722C72.8914 3.33883 72.6863 2.79457 72.2668 2.36489C71.8566 1.93521 71.3439 1.72514 70.7473 1.72514C70.1506 1.72514 69.6379 1.93521 69.2277 2.36489C68.8175 2.79457 68.6031 3.33883 68.6031 4.00722C68.6031 4.67561 68.8082 5.21987 69.2277 5.64955Z" fill="white" stroke="white" stroke-width="0.186448" stroke-miterlimit="10"/>
<path d="M76.5537 6.87165V1.14258H78.5767C79.0148 1.14258 79.397 1.29535 79.714 1.58181C80.031 1.87781 80.1988 2.2502 80.1988 2.69898C80.1988 2.97588 80.1335 3.21459 79.9937 3.41511C79.8538 3.62518 79.6767 3.77795 79.4437 3.88299V3.91163C79.7233 4.00711 79.9471 4.16944 80.1242 4.40815C80.3013 4.64686 80.3945 4.91422 80.3945 5.22932C80.3945 5.69719 80.2267 6.08868 79.8911 6.39423C79.5555 6.69978 79.1547 6.8621 78.6979 6.8621H76.5537V6.87165ZM77.2715 3.59653H78.5767C78.847 3.59653 79.0614 3.50105 79.2292 3.31963C79.397 3.13821 79.4716 2.93769 79.4716 2.71807C79.4716 2.49846 79.397 2.29794 79.2292 2.11652C79.0708 1.9351 78.8657 1.83961 78.6046 1.83961H77.2715V3.59653ZM77.2715 6.16506H78.7165C78.9962 6.16506 79.2199 6.06958 79.3877 5.86906C79.5555 5.66855 79.6487 5.45848 79.6487 5.21977C79.6487 4.98106 79.5648 4.77099 79.3784 4.58002C79.2013 4.38905 78.9682 4.28402 78.6792 4.28402H77.2622V6.16506H77.2715Z" fill="white" stroke="white" stroke-width="0.186448" stroke-miterlimit="10"/>
<defs>
<linearGradient id="paint0_linear" x1="11.0295" y1="2.77588" x2="-4.99049" y2="18.4166" gradientUnits="userSpaceOnUse">
<stop stop-color="#00A0FF"/>
<stop offset="0.00657445" stop-color="#00A1FF"/>
<stop offset="0.2601" stop-color="#00BEFF"/>
<stop offset="0.5122" stop-color="#00D2FF"/>
<stop offset="0.7604" stop-color="#00DFFF"/>
<stop offset="1" stop-color="#00E3FF"/>
</linearGradient>
<linearGradient id="paint1_linear" x1="22.2472" y1="13.5572" x2="-0.310085" y2="13.5572" gradientUnits="userSpaceOnUse">
<stop stop-color="#FFE000"/>
<stop offset="0.4087" stop-color="#FFBD00"/>
<stop offset="0.7754" stop-color="#FFA500"/>
<stop offset="1" stop-color="#FF9C00"/>
</linearGradient>
<linearGradient id="paint2_linear" x1="13.8496" y1="15.7488" x2="-7.87483" y2="36.9589" gradientUnits="userSpaceOnUse">
<stop stop-color="#FF3A44"/>
<stop offset="1" stop-color="#C31162"/>
</linearGradient>
<linearGradient id="paint3_linear" x1="-2.49171" y1="-5.37247" x2="7.20922" y2="4.09867" gradientUnits="userSpaceOnUse">
<stop stop-color="#32A071"/>
<stop offset="0.0685" stop-color="#2DA771"/>
<stop offset="0.4762" stop-color="#15CF74"/>
<stop offset="0.8009" stop-color="#06E775"/>
<stop offset="1" stop-color="#00F076"/>
</linearGradient>
</defs>
</svg>
