<svg width="108" height="23" viewBox="0 0 108 23" fill="none" xmlns="http://www.w3.org/2000/svg">
<g clip-path="url(#clip0)">
<path fill-rule="evenodd" clip-rule="evenodd" d="M37.9663 17.1693H33.6432L32.5752 19.8489H30.668L34.8893 9.80036H36.6948L41.0179 19.8489H39.0343L37.9663 17.1693ZM34.1773 15.8047H37.3814L36.2371 12.9266C36.0845 12.5296 35.9319 12.083 35.7793 11.6116C35.6268 12.0334 35.4996 12.48 35.3216 12.9018L34.1773 15.8047ZM41.8825 14.2168C41.8825 13.6709 41.857 13.0506 41.8316 12.3807H43.5608C43.6371 12.7033 43.6626 13.0258 43.688 13.3484C44.4 12.6288 45.2138 12.2567 46.1292 12.2567C47.2481 12.2319 48.2908 12.8521 48.7231 13.8198C49.0028 14.3656 49.1554 15.0603 49.1554 15.9039C49.1808 16.6731 49.0028 17.4422 48.6722 18.1369C48.3925 18.7324 47.9093 19.2286 47.3244 19.5512C46.7141 19.8737 46.0275 20.0474 45.3155 20.0226C44.7815 20.0226 44.222 19.9233 43.7134 19.7745V22.8511L41.8825 22.9999V14.2168ZM46.7141 18.0377C47.0956 17.5663 47.2736 16.8716 47.2736 15.9784C47.2736 15.1348 47.121 14.5393 46.8158 14.1671C46.5107 13.795 46.0529 13.5965 45.5698 13.5965C45.2138 13.5965 44.8832 13.6709 44.578 13.8198C44.2474 13.9935 43.9677 14.1919 43.7134 14.4401V18.4595C43.9168 18.5587 44.1457 18.6083 44.3492 18.658C44.578 18.7076 44.8323 18.7324 45.0612 18.7324C45.7986 18.7324 46.3327 18.5091 46.7141 18.0377ZM50.3251 14.2168C50.3251 13.6709 50.2997 13.0506 50.2743 12.3807H52.0035C52.0798 12.7033 52.1052 13.0258 52.1306 13.3484C52.8427 12.6288 53.6564 12.2567 54.5719 12.2567C55.6908 12.2319 56.7334 12.8521 57.1657 13.8198C57.4455 14.3656 57.598 15.0603 57.598 15.9039C57.6235 16.6731 57.4455 17.4422 57.1149 18.1369C56.8097 18.7324 56.352 19.2286 55.7671 19.5512C55.1568 19.8737 54.4702 20.0474 53.7836 20.0226C53.2496 20.0226 52.6901 19.9233 52.1815 19.7745V22.8511L50.3506 22.9999V14.2168H50.3251ZM55.1568 18.0377C55.5382 17.5663 55.7162 16.8716 55.7162 15.9784C55.7162 15.1348 55.5637 14.5393 55.2585 14.1671C54.9533 13.795 54.4956 13.5965 54.0124 13.5965C53.6564 13.5965 53.3258 13.6709 53.0207 13.8198C52.7155 13.9935 52.4104 14.1919 52.1561 14.4401V18.4595C52.3595 18.5587 52.5884 18.6083 52.7918 18.658C53.0207 18.7076 53.275 18.7324 53.5039 18.7324C54.2413 18.7324 54.7753 18.5091 55.1568 18.0377ZM61.0565 19.3775C60.2936 18.9805 59.6324 18.385 59.2255 17.6159C58.7932 16.8467 58.5898 15.9535 58.5898 14.9115C58.5898 13.7702 58.8441 12.8273 59.3273 12.0334C59.8104 11.2642 60.497 10.6439 61.3362 10.2718C62.2262 9.87479 63.1926 9.65149 64.1843 9.6763C65.3287 9.6763 66.473 9.92441 67.5156 10.3958L67.0579 11.7108C66.1933 11.289 65.227 11.0905 64.2606 11.0657C63.574 11.0409 62.8874 11.2146 62.3025 11.5123C61.7431 11.8101 61.2853 12.2815 60.9802 12.8273C60.6496 13.4724 60.497 14.1919 60.5225 14.9115C60.5225 15.5566 60.6242 16.2017 60.8785 16.8219C61.1073 17.3678 61.5142 17.8144 62.0228 18.1369C62.5314 18.4595 63.1926 18.6332 63.9809 18.6332C64.3369 18.6332 64.6929 18.6083 65.0489 18.5587C65.405 18.5091 65.7355 18.4347 66.0661 18.3106V16.2761H63.574V14.9363H67.8462V19.1542C67.2359 19.4271 66.5747 19.6256 65.9136 19.7745C65.2524 19.9233 64.5658 19.9978 63.9046 19.9978C62.8874 20.0226 61.9211 19.7993 61.0565 19.3775ZM74.4325 19.8737C74.3562 19.5512 74.3308 19.2038 74.3054 18.8813C74.0002 19.2038 73.6188 19.4767 73.2119 19.6752C72.7287 19.8985 72.2201 20.0226 71.6861 19.9978C71.2538 19.9978 70.8215 19.9233 70.4146 19.7497C70.0586 19.576 69.728 19.3279 69.4991 18.9805C69.2703 18.6083 69.1431 18.1617 69.1686 17.7399C69.1431 17.07 69.4483 16.4001 70.0077 16.0032C70.5672 15.5566 71.5081 15.3581 72.805 15.3581C73.2882 15.3581 73.7968 15.3829 74.2799 15.4573V15.3084C74.2799 14.6385 74.1273 14.1671 73.8222 13.919C73.517 13.6461 73.0847 13.4972 72.5253 13.4972C72.093 13.4972 71.6861 13.5469 71.2538 13.6461C70.8469 13.7453 70.4655 13.8694 70.084 14.0183L69.8043 12.7777C70.2366 12.604 70.6689 12.48 71.1012 12.4055C71.6607 12.2815 72.2201 12.2319 72.805 12.2319C73.4153 12.207 74.0002 12.3063 74.5597 12.5296C75.0682 12.7281 75.4497 13.1002 75.704 13.5469C75.9837 14.0183 76.1109 14.6634 76.1109 15.4821V18.4595C76.1109 18.782 76.1363 19.2286 76.1617 19.8737H74.4325ZM73.339 18.4843C73.695 18.3354 74.0002 18.1121 74.2799 17.8392V16.4498C73.8731 16.4001 73.4662 16.3753 73.0593 16.3753C72.2964 16.3753 71.7878 16.4746 71.4827 16.7227C71.2029 16.946 71.0249 17.2933 71.0504 17.6407C71.0504 18.0129 71.1521 18.2858 71.3555 18.4595C71.5844 18.658 71.915 18.7324 72.2201 18.7324C72.6016 18.7324 72.983 18.6332 73.339 18.4843ZM77.7129 18.0625V9.2297L79.5439 9.08083V17.7648C79.5439 18.0873 79.5947 18.3106 79.7219 18.4595C79.8745 18.6083 80.0779 18.6828 80.2813 18.658C80.4339 18.658 80.6119 18.6332 80.7645 18.5835L80.9934 19.8241C80.7899 19.8985 80.5611 19.9481 80.3576 19.973C80.1288 20.0226 79.8745 20.0226 79.6456 20.0226C78.3487 19.9978 77.7129 19.3527 77.7129 18.0625ZM82.2903 18.0625V9.2297L84.1212 9.08083V17.7648C84.1212 18.0873 84.1721 18.3106 84.2992 18.4595C84.4518 18.6083 84.6553 18.6828 84.8587 18.658C85.0113 18.658 85.1893 18.6332 85.3419 18.5835L85.5453 19.8241C85.3419 19.8985 85.1384 19.9481 84.9095 19.973C84.6807 20.0226 84.4518 20.0226 84.1975 20.0226C82.926 19.9978 82.2903 19.3527 82.2903 18.0625ZM93.1742 16.3505H87.9357C88.012 17.9136 88.8257 18.7076 90.3515 18.7076C90.7329 18.7076 91.1398 18.658 91.4958 18.5835C91.8773 18.5091 92.2587 18.385 92.6402 18.2362L93.0471 19.4023C92.1062 19.8241 91.0635 20.0226 90.0209 20.0226C89.1817 20.0226 88.4443 19.8737 87.8594 19.576C87.2999 19.2782 86.8422 18.8316 86.537 18.2858C86.2319 17.6407 86.0793 16.946 86.1047 16.2513C86.0793 15.5069 86.2573 14.7874 86.5625 14.1175C86.8422 13.5469 87.2999 13.0754 87.8594 12.7529C88.4443 12.4303 89.1054 12.2815 89.7921 12.2815C90.5549 12.2815 91.1907 12.4552 91.6993 12.7777C92.2079 13.1002 92.5893 13.5469 92.8182 14.0927C93.0725 14.6634 93.1996 15.3084 93.1742 15.9287V16.3505ZM91.3687 15.2588C91.3433 14.6634 91.1653 14.2168 90.8855 13.919C90.5804 13.6213 90.1735 13.4476 89.7412 13.4724C89.3089 13.4476 88.8766 13.6213 88.5714 13.919C88.2663 14.2168 88.0628 14.6634 87.9611 15.2588H91.3687ZM94.6491 14.2664C94.6491 13.8446 94.6237 13.2243 94.5983 12.3807H96.3275C96.3529 12.5792 96.3783 12.8273 96.4038 13.1251C96.4292 13.4228 96.4546 13.6461 96.4546 13.8446C96.6326 13.5469 96.8615 13.2739 97.0904 13.0258C97.2938 12.8025 97.5481 12.6288 97.8024 12.48C98.0821 12.3311 98.4127 12.2567 98.7433 12.2567C98.9976 12.2567 99.2265 12.2815 99.4808 12.3311L99.2519 13.8198C99.0485 13.7702 98.845 13.7453 98.667 13.7453C98.2601 13.7453 97.8787 13.8446 97.5227 14.0431C97.1158 14.316 96.7852 14.6634 96.4801 15.0603V19.8737H94.6491V14.2664ZM100.574 22.9255C100.345 22.9007 100.117 22.8263 99.9131 22.7766L100.244 21.5361C100.371 21.5609 100.523 21.6105 100.701 21.6353C100.879 21.6601 101.057 21.6849 101.235 21.6849C102.049 21.6849 102.659 21.1887 103.066 20.2211L103.194 19.9481L100.244 12.4055H102.227L103.702 16.6234C103.906 17.1693 104.058 17.7151 104.16 18.2858C104.312 17.7399 104.465 17.1941 104.643 16.6731L106.143 12.4055H108L105.05 19.9978C104.821 20.6181 104.516 21.1887 104.16 21.7346C103.88 22.1563 103.473 22.4789 103.016 22.727C102.507 22.9503 101.973 23.0496 101.439 23.0496C101.134 22.9999 100.854 22.9751 100.574 22.9255Z" fill="white"/>
<path fill-rule="evenodd" clip-rule="evenodd" d="M17.0379 0H6.66259C1.78008 0 0 1.66235 0 6.22762V15.904C0 20.4693 1.78008 22.1316 6.66259 22.1316H17.0379C21.9204 22.1316 23.7005 20.4693 23.7005 15.904V6.22762C23.7259 1.66235 21.9458 0 17.0379 0Z" fill="#C8102E"/>
<path fill-rule="evenodd" clip-rule="evenodd" d="M31.7111 6.00432C31.3297 5.80583 31.0245 5.50809 30.8211 5.13592C30.6176 4.73894 30.4905 4.26753 30.5159 3.82093C30.5159 3.34951 30.6176 2.8781 30.8465 2.45631C31.0499 2.05933 31.3805 1.7616 31.7874 1.56311C32.2451 1.33981 32.7537 1.21575 33.2369 1.24056C33.7201 1.24056 34.2032 1.33981 34.6101 1.5383C34.9915 1.73679 35.2967 2.03452 35.5001 2.40669C35.7036 2.80367 35.8053 3.25027 35.8053 3.69687C35.8053 4.16829 35.7036 4.66451 35.4747 5.0863C35.2713 5.48328 34.9407 5.78101 34.5338 6.00432C34.0761 6.22762 33.5929 6.32686 33.0843 6.32686C32.6012 6.32686 32.1434 6.22762 31.7111 6.00432ZM34.0761 5.38404C34.3304 5.21036 34.5338 4.98706 34.661 4.71413C34.7881 4.4164 34.8644 4.06904 34.839 3.74649C34.839 3.42395 34.7881 3.1014 34.661 2.77886C34.5592 2.50593 34.3558 2.28263 34.1269 2.10895C33.8472 1.93528 33.5166 1.83603 33.1606 1.86084C32.83 1.86084 32.4994 1.93528 32.2197 2.10895C31.9654 2.28263 31.762 2.50593 31.6348 2.77886C31.5077 3.07659 31.4314 3.39914 31.4568 3.72168C31.4568 4.04423 31.5077 4.36678 31.6348 4.68932C31.7365 4.96224 31.94 5.18555 32.1943 5.35922C32.474 5.5329 32.8046 5.60734 33.1352 5.60734C33.4912 5.65696 33.7964 5.55771 34.0761 5.38404ZM37.6617 2.00971H36.0087L36.085 1.29018H40.2301L40.1538 2.00971H38.6026V6.25243H37.6871V2.00971H37.6617ZM45.1889 6.25243H44.1462L42.5696 4.06904H41.9339V6.25243H41.0184V1.29018H41.9339V3.3247H42.417L43.5105 1.83603C43.6377 1.63754 43.8157 1.48867 43.9937 1.36462C44.1717 1.26537 44.4005 1.21575 44.604 1.21575C44.782 1.21575 44.9854 1.24056 45.1634 1.31499L44.9854 1.9849C44.8837 1.93528 44.8074 1.93528 44.7057 1.93528C44.604 1.93528 44.5023 1.96009 44.426 2.00971C44.3243 2.08414 44.248 2.15858 44.1971 2.25782L43.2053 3.548L45.1889 6.25243ZM45.8755 1.29018H47.2995C47.9607 1.29018 48.4947 1.41424 48.8507 1.66235C49.2068 1.91046 49.3848 2.28263 49.3848 2.77886C49.3848 3.07659 49.3085 3.37433 49.1305 3.64725C48.9525 3.89536 48.7236 4.09385 48.4693 4.21791C48.1641 4.34196 47.8335 4.4164 47.4775 4.4164C47.2487 4.4164 47.0198 4.39159 46.7909 4.34196V6.25243H45.8755V1.29018ZM48.1896 3.49838C48.393 3.3247 48.4947 3.05178 48.4947 2.80367C48.4947 2.50593 48.393 2.28263 48.1896 2.13377C47.9353 1.9849 47.6301 1.91046 47.325 1.93528H46.8164V3.69687C46.9944 3.72168 47.1724 3.74649 47.3504 3.74649C47.6555 3.77131 47.9353 3.67206 48.1896 3.49838ZM51.1648 6.00432C50.7834 5.80583 50.4782 5.50809 50.2748 5.13592C50.0714 4.73894 49.9696 4.26753 49.9696 3.82093C49.9696 3.34951 50.0714 2.8781 50.3002 2.45631C50.5037 2.05933 50.8343 1.7616 51.2411 1.56311C51.6989 1.33981 52.2075 1.21575 52.6906 1.24056C53.1738 1.24056 53.657 1.33981 54.0638 1.5383C54.4453 1.73679 54.7504 2.03452 54.9539 2.40669C55.1573 2.80367 55.259 3.25027 55.259 3.69687C55.259 4.16829 55.1573 4.66451 54.9284 5.0863C54.725 5.48328 54.3944 5.78101 53.9875 6.00432C53.5552 6.22762 53.0466 6.32686 52.538 6.32686C52.0549 6.32686 51.5971 6.22762 51.1648 6.00432ZM53.5298 5.38404C53.7841 5.21036 53.9875 4.98706 54.1147 4.71413C54.2418 4.4164 54.3181 4.06904 54.2927 3.74649C54.2927 3.42395 54.2418 3.1014 54.1147 2.77886C54.013 2.50593 53.8095 2.28263 53.5807 2.10895C53.3009 1.93528 52.9704 1.83603 52.6398 1.86084C52.3092 1.86084 51.9786 1.93528 51.6989 2.10895C51.4446 2.28263 51.2411 2.50593 51.114 2.77886C50.9868 3.07659 50.9105 3.39914 50.9105 3.72168C50.9105 4.04423 50.9614 4.36678 51.0886 4.68932C51.1903 4.96224 51.3937 5.18555 51.648 5.35922C51.9277 5.5329 52.2583 5.60734 52.5889 5.60734C52.9449 5.65696 53.2501 5.55771 53.5298 5.38404ZM59.9381 6.25243V3.52319C59.9381 3.17584 59.9381 2.77886 59.9889 2.35707L57.3188 6.25243H56.3016V1.29018H57.1408V4.11866C57.1408 4.4164 57.1408 4.76375 57.1154 5.13592L59.7347 1.29018H60.8027V6.25243H59.9381ZM57.8783 0.868393C57.7003 0.793959 57.5477 0.645092 57.446 0.496224C57.3443 0.347357 57.268 0.173679 57.2425 0H57.9037C57.98 0.372168 58.2089 0.545847 58.5903 0.545847C58.9718 0.545847 59.2006 0.372168 59.2769 0H59.9381C59.9127 0.173679 59.8364 0.347357 59.7347 0.496224C59.6329 0.645092 59.4804 0.769148 59.3023 0.868393C58.87 1.04207 58.336 1.04207 57.8783 0.868393ZM63.2185 2.00971H61.591L61.6673 1.29018H65.8124L65.7361 2.00971H64.1594V6.25243H63.244V2.00971H63.2185ZM66.5752 1.29018H69.7031L69.6268 1.9849H67.4907V3.34951H69.4997V3.99461H67.4907V5.50809H69.7285L69.6522 6.22762H66.5752V1.29018ZM76.1114 3.79612C76.4928 3.99461 76.7471 4.4164 76.7217 4.83819C76.7217 5.0863 76.6454 5.35922 76.4928 5.55771C76.3403 5.78101 76.1114 5.95469 75.8571 6.05394C75.5265 6.17799 75.1959 6.22762 74.8399 6.22762H73.1107V1.26537H74.7636C75.3231 1.26537 75.7554 1.36462 76.0351 1.56311C76.3148 1.7616 76.4674 2.08414 76.4674 2.40669C76.4674 2.67961 76.3911 2.92772 76.2131 3.15103C76.0351 3.34951 75.7808 3.49838 75.5011 3.57282C75.7045 3.62244 75.9334 3.67206 76.1114 3.79612ZM74.0007 3.3247H74.5856C74.7636 3.3247 74.9416 3.29989 75.0942 3.22546C75.2213 3.15103 75.3485 3.05178 75.4248 2.92772C75.5011 2.80367 75.5519 2.67961 75.5265 2.53074C75.5265 2.35707 75.4502 2.18339 75.2976 2.08414C75.0942 1.9849 74.8399 1.91046 74.611 1.93528H74.0007V3.3247ZM75.5265 5.38404C75.7045 5.21036 75.8062 4.98706 75.8062 4.76375C75.8062 4.51564 75.6791 4.31715 75.5011 4.16828C75.2213 3.99461 74.9162 3.92017 74.611 3.94498H74.0007V5.60734H74.6873C75.0688 5.60734 75.3485 5.5329 75.5265 5.38404Z" fill="white"/>
<path fill-rule="evenodd" clip-rule="evenodd" d="M4.70336 11.0658H5.3391V13.9439H4.70336V12.7777H3.2793V13.9439H2.64355V11.0658H3.2793V12.2319H4.70336V11.0658Z" fill="white"/>
<path fill-rule="evenodd" clip-rule="evenodd" d="M8.24047 12.7281C8.24047 13.1995 7.98618 13.4476 7.52844 13.4476C7.07071 13.4476 6.81641 13.1747 6.81641 12.7033V11.0658H6.18066V12.7281C6.18066 13.5469 6.66383 14.0183 7.50301 14.0183C8.34219 14.0183 8.85079 13.5469 8.85079 12.7033V11.0658H8.21504V12.7281H8.24047Z" fill="white"/>
<path fill-rule="evenodd" clip-rule="evenodd" d="M15.5119 13.0507L14.8253 11.0658H14.2913L13.6047 13.0507L12.918 11.0658H12.2314L13.3249 13.9439H13.8335L14.5456 12.0582L15.2576 13.9439H15.7662L16.8597 11.0658H16.1985L15.5119 13.0507Z" fill="white"/>
<path fill-rule="evenodd" clip-rule="evenodd" d="M17.9795 12.7033H19.1238V12.1823H17.9795V11.5868H19.6578V11.0658H17.3691V13.9439H19.7087V13.4228H17.9795V12.7033Z" fill="white"/>
<path fill-rule="evenodd" clip-rule="evenodd" d="M20.4453 13.9439H21.0811V11.0658H20.4453V13.9439Z" fill="white"/>
<path fill-rule="evenodd" clip-rule="evenodd" d="M11.1133 11.0658H10.5539L9.18066 13.9687H9.81641L10.0961 13.3732H11.5202L11.7999 13.9687H12.4611L11.1133 11.0658ZM10.3504 12.8274L10.8082 11.7853L11.2913 12.8274H10.3504Z" fill="white"/>
<path fill-rule="evenodd" clip-rule="evenodd" d="M11.8752 7.36891C9.68824 7.36891 7.93359 5.73137 7.93359 3.69685H8.49305C8.46762 4.83817 9.10336 5.90505 10.1714 6.50052C11.2395 7.07118 12.5364 7.07118 13.6044 6.50052C14.6725 5.92986 15.3082 4.86298 15.2828 3.69685H15.8422C15.8422 4.6893 15.4099 5.63212 14.6725 6.30203C13.9096 6.99674 12.8924 7.39372 11.8752 7.36891Z" fill="white"/>
</g>
<defs>
<clipPath id="clip0">
<rect width="108" height="23" fill="white"/>
</clipPath>
</defs>
</svg>
